<svg width="16" height="16" viewBox="0 0 16 16" fill="none" xmlns="http://www.w3.org/2000/svg">
<path d="M8.89955 7.99664L15.6531 1.23644C15.7723 1.1167 15.8391 0.954629 15.839 0.785714C15.8389 0.6168 15.7719 0.454815 15.6525 0.335238C15.4137 0.0976382 14.9931 0.0964384 14.7519 0.336438L8.00015 7.09664L1.24595 0.334638C1.00595 0.0976382 0.585347 0.0988381 0.346547 0.335838C0.287274 0.394874 0.240353 0.465124 0.208521 0.542489C0.17669 0.619853 0.160585 0.702783 0.161147 0.786438C0.161147 0.956838 0.227147 1.11644 0.346547 1.23464L7.10015 7.99604L0.347147 14.758C0.227978 14.878 0.161242 15.0403 0.16158 15.2093C0.161917 15.3784 0.229301 15.5404 0.348947 15.6598C0.464747 15.7744 0.628547 15.8404 0.797747 15.8404H0.801347C0.971147 15.8398 1.13495 15.7732 1.24835 15.6574L8.00015 8.89724L14.7543 15.6592C14.8737 15.778 15.0333 15.844 15.2025 15.844C15.2862 15.8443 15.3691 15.828 15.4464 15.7961C15.5238 15.7642 15.5941 15.7173 15.6532 15.6581C15.7124 15.599 15.7593 15.5287 15.7912 15.4513C15.8231 15.374 15.8394 15.2911 15.8391 15.2074C15.8391 15.0376 15.7731 14.8774 15.6531 14.7592L8.89955 7.99664Z" fill="black"/>
</svg>
