<svg width="24" height="24" viewBox="0 0 24 24" fill="none" xmlns="http://www.w3.org/2000/svg">
<path d="M2.90723 7.82008L3.93523 17.9536C4.04077 18.9944 4.52891 19.9589 5.30506 20.6603C6.08121 21.3618 7.0901 21.7501 8.13623 21.7501H15.8632C16.9094 21.7501 17.9182 21.3618 18.6944 20.6603C19.4705 19.9589 19.9587 18.9944 20.0642 17.9536L21.0922 7.81958L2.90723 7.82008Z" stroke="black" stroke-linecap="round" stroke-linejoin="round"/>
<path d="M7.81641 7.82V6.412C7.81641 5.3026 8.25711 4.23864 9.04158 3.45418C9.82604 2.66971 10.89 2.229 11.9994 2.229C13.1088 2.229 14.1728 2.66971 14.9572 3.45418C15.7417 4.23864 16.1824 5.3026 16.1824 6.412V7.8195" stroke="black" stroke-linecap="round" stroke-linejoin="round"/>
</svg>
